<svg width="1754" height="651" viewBox="0 0 1754 651" fill="none" xmlns="http://www.w3.org/2000/svg">
<mask id="path-1-inside-1_15_3" fill="white">
<path fill-rule="evenodd" clip-rule="evenodd" d="M1493.09 184.148C1468.68 176.36 1451 153.494 1451 126.5C1451 93.0868 1478.09 66 1511.5 66C1514.35 66 1517.16 66.1973 1519.9 66.5791C1530.32 48.3143 1549.97 36 1572.5 36C1583.62 36 1594.04 39.0017 1603 44.2392C1611.96 39.0017 1622.38 36 1633.5 36C1661.92 36 1685.76 55.5956 1692.25 82.0126C1692.67 82.0042 1693.08 82 1693.5 82C1726.91 82 1754 109.087 1754 142.5C1754 175.913 1726.91 203 1693.5 203C1693 203 1692.5 202.994 1692 202.982C1685.16 228.895 1661.56 248 1633.5 248C1618.17 248 1604.16 242.295 1593.5 232.891C1582.84 242.295 1568.83 248 1553.5 248C1520.09 248 1493 220.913 1493 187.5C1493 186.375 1493.03 185.258 1493.09 184.148Z"/>
</mask>
<path fill-rule="evenodd" clip-rule="evenodd" d="M1493.09 184.148C1468.68 176.36 1451 153.494 1451 126.5C1451 93.0868 1478.09 66 1511.5 66C1514.35 66 1517.16 66.1973 1519.9 66.5791C1530.32 48.3143 1549.97 36 1572.5 36C1583.62 36 1594.04 39.0017 1603 44.2392C1611.96 39.0017 1622.38 36 1633.5 36C1661.92 36 1685.76 55.5956 1692.25 82.0126C1692.67 82.0042 1693.08 82 1693.5 82C1726.91 82 1754 109.087 1754 142.5C1754 175.913 1726.91 203 1693.5 203C1693 203 1692.5 202.994 1692 202.982C1685.16 228.895 1661.56 248 1633.5 248C1618.17 248 1604.16 242.295 1593.5 232.891C1582.84 242.295 1568.83 248 1553.5 248C1520.09 248 1493 220.913 1493 187.5C1493 186.375 1493.03 185.258 1493.09 184.148Z" fill="white"/>
<path d="M1493.09 184.148L1494.09 184.203L1494.13 183.431L1493.4 183.196L1493.09 184.148ZM1519.9 66.5791L1519.77 67.5696L1520.44 67.6628L1520.77 67.0744L1519.9 66.5791ZM1603 44.2392L1602.5 45.1024L1603 45.3977L1603.5 45.1024L1603 44.2392ZM1692.25 82.0126L1691.28 82.2512L1691.47 83.0285L1692.27 83.0124L1692.25 82.0126ZM1692 202.982L1692.03 201.982L1691.24 201.963L1691.03 202.727L1692 202.982ZM1593.5 232.891L1594.16 232.141L1593.5 231.558L1592.84 232.141L1593.5 232.891ZM1493.4 183.196C1469.39 175.535 1452 153.047 1452 126.5H1450C1450 153.942 1467.97 177.184 1492.79 185.101L1493.4 183.196ZM1452 126.5C1452 93.6391 1478.64 67 1511.5 67V65C1477.53 65 1450 92.5345 1450 126.5H1452ZM1511.5 67C1514.31 67 1517.07 67.1941 1519.77 67.5696L1520.04 65.5886C1517.25 65.2005 1514.4 65 1511.5 65V67ZM1520.77 67.0744C1531.02 49.1089 1550.34 37 1572.5 37V35C1549.6 35 1529.62 47.5197 1519.04 66.0838L1520.77 67.0744ZM1572.5 37C1583.44 37 1593.69 39.9521 1602.5 45.1024L1603.5 43.376C1594.4 38.0514 1583.81 35 1572.5 35V37ZM1603.5 45.1024C1612.31 39.9521 1622.56 37 1633.5 37V35C1622.19 35 1611.6 38.0514 1602.5 43.376L1603.5 45.1024ZM1633.5 37C1661.45 37 1684.9 56.2708 1691.28 82.2512L1693.23 81.7739C1686.63 54.9204 1662.39 35 1633.5 35V37ZM1692.27 83.0124C1692.68 83.0041 1693.09 83 1693.5 83V81C1693.08 81 1692.66 81.0043 1692.23 81.0128L1692.27 83.0124ZM1693.5 83C1726.36 83 1753 109.639 1753 142.5H1755C1755 108.534 1727.47 81 1693.5 81V83ZM1753 142.5C1753 175.361 1726.36 202 1693.5 202V204C1727.47 204 1755 176.466 1755 142.5H1753ZM1693.5 202C1693.01 202 1692.52 201.994 1692.03 201.982L1691.98 203.982C1692.48 203.994 1692.99 204 1693.5 204V202ZM1691.03 202.727C1684.31 228.211 1661.1 247 1633.5 247V249C1662.03 249 1686.02 229.578 1692.97 203.237L1691.03 202.727ZM1633.5 247C1618.42 247 1604.65 241.39 1594.16 232.141L1592.84 233.641C1603.68 243.2 1617.91 249 1633.5 249V247ZM1592.84 232.141C1582.35 241.39 1568.58 247 1553.5 247V249C1569.09 249 1583.32 243.2 1594.16 233.641L1592.84 232.141ZM1553.5 247C1520.64 247 1494 220.361 1494 187.5H1492C1492 221.466 1519.53 249 1553.5 249V247ZM1494 187.5C1494 186.394 1494.03 185.294 1494.09 184.203L1492.09 184.094C1492.03 185.222 1492 186.357 1492 187.5H1494Z" fill="black" mask="url(#path-1-inside-1_15_3)"/>
<mask id="path-3-inside-2_15_3" fill="white">
<path fill-rule="evenodd" clip-rule="evenodd" d="M1261.09 547.148C1236.68 539.36 1219 516.494 1219 489.5C1219 456.087 1246.09 429 1279.5 429C1282.35 429 1285.16 429.197 1287.9 429.579C1298.32 411.314 1317.97 399 1340.5 399C1351.62 399 1362.04 402.002 1371 407.239C1379.96 402.002 1390.38 399 1401.5 399C1429.92 399 1453.76 418.596 1460.25 445.013C1460.67 445.004 1461.08 445 1461.5 445C1494.91 445 1522 472.087 1522 505.5C1522 538.913 1494.91 566 1461.5 566C1461 566 1460.5 565.994 1460 565.982C1453.16 591.895 1429.56 611 1401.5 611C1386.17 611 1372.16 605.295 1361.5 595.891C1350.84 605.295 1336.83 611 1321.5 611C1288.09 611 1261 583.913 1261 550.5C1261 549.375 1261.03 548.258 1261.09 547.148Z"/>
</mask>
<path fill-rule="evenodd" clip-rule="evenodd" d="M1261.09 547.148C1236.68 539.36 1219 516.494 1219 489.5C1219 456.087 1246.09 429 1279.5 429C1282.35 429 1285.16 429.197 1287.9 429.579C1298.32 411.314 1317.97 399 1340.5 399C1351.62 399 1362.04 402.002 1371 407.239C1379.96 402.002 1390.38 399 1401.5 399C1429.92 399 1453.76 418.596 1460.25 445.013C1460.67 445.004 1461.08 445 1461.5 445C1494.91 445 1522 472.087 1522 505.5C1522 538.913 1494.91 566 1461.5 566C1461 566 1460.5 565.994 1460 565.982C1453.16 591.895 1429.56 611 1401.5 611C1386.17 611 1372.16 605.295 1361.5 595.891C1350.84 605.295 1336.83 611 1321.5 611C1288.09 611 1261 583.913 1261 550.5C1261 549.375 1261.03 548.258 1261.09 547.148Z" fill="white"/>
<path d="M1261.09 547.148L1262.09 547.203L1262.13 546.431L1261.4 546.196L1261.09 547.148ZM1287.9 429.579L1287.77 430.57L1288.44 430.663L1288.77 430.074L1287.9 429.579ZM1371 407.239L1370.5 408.102L1371 408.398L1371.5 408.102L1371 407.239ZM1460.25 445.013L1459.28 445.251L1459.47 446.029L1460.27 446.012L1460.25 445.013ZM1460 565.982L1460.03 564.982L1459.24 564.963L1459.03 565.727L1460 565.982ZM1361.5 595.891L1362.16 595.141L1361.5 594.558L1360.84 595.141L1361.5 595.891ZM1261.4 546.196C1237.39 538.535 1220 516.047 1220 489.5H1218C1218 516.942 1235.97 540.184 1260.79 548.101L1261.4 546.196ZM1220 489.5C1220 456.639 1246.64 430 1279.5 430V428C1245.53 428 1218 455.534 1218 489.5H1220ZM1279.5 430C1282.31 430 1285.07 430.194 1287.77 430.57L1288.04 428.589C1285.25 428.201 1282.4 428 1279.5 428V430ZM1288.77 430.074C1299.02 412.109 1318.34 400 1340.5 400V398C1317.6 398 1297.62 410.52 1287.04 429.084L1288.77 430.074ZM1340.5 400C1351.44 400 1361.69 402.952 1370.5 408.102L1371.5 406.376C1362.4 401.051 1351.81 398 1340.5 398V400ZM1371.5 408.102C1380.31 402.952 1390.56 400 1401.5 400V398C1390.19 398 1379.6 401.051 1370.5 406.376L1371.5 408.102ZM1401.5 400C1429.45 400 1452.9 419.271 1459.28 445.251L1461.23 444.774C1454.63 417.92 1430.39 398 1401.5 398V400ZM1460.27 446.012C1460.68 446.004 1461.09 446 1461.5 446V444C1461.08 444 1460.66 444.004 1460.23 444.013L1460.27 446.012ZM1461.5 446C1494.36 446 1521 472.639 1521 505.5H1523C1523 471.534 1495.47 444 1461.5 444V446ZM1521 505.5C1521 538.361 1494.36 565 1461.5 565V567C1495.47 567 1523 539.466 1523 505.5H1521ZM1461.5 565C1461.01 565 1460.52 564.994 1460.03 564.982L1459.98 566.982C1460.48 566.994 1460.99 567 1461.5 567V565ZM1459.03 565.727C1452.31 591.211 1429.1 610 1401.5 610V612C1430.03 612 1454.02 592.578 1460.97 566.237L1459.03 565.727ZM1401.5 610C1386.42 610 1372.65 604.39 1362.16 595.141L1360.84 596.641C1371.68 606.2 1385.91 612 1401.5 612V610ZM1360.84 595.141C1350.35 604.39 1336.58 610 1321.5 610V612C1337.09 612 1351.32 606.2 1362.16 596.641L1360.84 595.141ZM1321.5 610C1288.64 610 1262 583.361 1262 550.5H1260C1260 584.466 1287.53 612 1321.5 612V610ZM1262 550.5C1262 549.394 1262.03 548.294 1262.09 547.203L1260.09 547.094C1260.03 548.222 1260 549.357 1260 550.5H1262Z" fill="black" mask="url(#path-3-inside-2_15_3)"/>
<mask id="path-5-inside-3_15_3" fill="white">
<path fill-rule="evenodd" clip-rule="evenodd" d="M321.091 148.148C296.679 140.36 279 117.494 279 90.5C279 57.0868 306.087 30 339.5 30C342.352 30 345.158 30.1973 347.905 30.5791C358.318 12.3143 377.971 0 400.5 0C411.623 0 422.045 3.0017 431 8.23924C439.955 3.0017 450.377 0 461.5 0C489.92 0 513.763 19.5956 520.254 46.0126C520.669 46.0042 521.084 46 521.5 46C554.913 46 582 73.0868 582 106.5C582 139.913 554.913 167 521.5 167C520.999 167 520.499 166.994 520.001 166.982C513.162 192.895 489.562 212 461.5 212C446.165 212 432.163 206.295 421.5 196.891C410.837 206.295 396.835 212 381.5 212C348.087 212 321 184.913 321 151.5C321 150.375 321.031 149.258 321.091 148.148Z"/>
</mask>
<path fill-rule="evenodd" clip-rule="evenodd" d="M321.091 148.148C296.679 140.36 279 117.494 279 90.5C279 57.0868 306.087 30 339.5 30C342.352 30 345.158 30.1973 347.905 30.5791C358.318 12.3143 377.971 0 400.5 0C411.623 0 422.045 3.0017 431 8.23924C439.955 3.0017 450.377 0 461.5 0C489.92 0 513.763 19.5956 520.254 46.0126C520.669 46.0042 521.084 46 521.5 46C554.913 46 582 73.0868 582 106.5C582 139.913 554.913 167 521.5 167C520.999 167 520.499 166.994 520.001 166.982C513.162 192.895 489.562 212 461.5 212C446.165 212 432.163 206.295 421.5 196.891C410.837 206.295 396.835 212 381.5 212C348.087 212 321 184.913 321 151.5C321 150.375 321.031 149.258 321.091 148.148Z" fill="white"/>
<path d="M321.091 148.148L322.09 148.203L322.132 147.431L321.395 147.196L321.091 148.148ZM347.905 30.5791L347.767 31.5696L348.438 31.6628L348.774 31.0744L347.905 30.5791ZM431 8.23924L430.495 9.10244L431 9.39772L431.505 9.10244L431 8.23924ZM520.254 46.0126L519.283 46.2512L519.474 47.0285L520.275 47.0124L520.254 46.0126ZM520.001 166.982L520.025 165.982L519.236 165.963L519.034 166.727L520.001 166.982ZM421.5 196.891L422.161 196.141L421.5 195.558L420.839 196.141L421.5 196.891ZM321.395 147.196C297.386 139.535 280 117.047 280 90.5H278C278 117.942 295.973 141.184 320.787 149.101L321.395 147.196ZM280 90.5C280 57.6391 306.639 31 339.5 31V29C305.534 29 278 56.5345 278 90.5H280ZM339.5 31C342.306 31 345.066 31.1941 347.767 31.5696L348.042 29.5886C345.25 29.2005 342.398 29 339.5 29V31ZM348.774 31.0744C359.016 13.1089 378.345 1 400.5 1V-1C377.597 -1 357.62 11.5197 347.036 30.0838L348.774 31.0744ZM400.5 1C411.441 1 421.689 3.95205 430.495 9.10244L431.505 7.37604C422.401 2.05135 411.805 -1 400.5 -1V1ZM431.505 9.10244C440.311 3.95205 450.559 1 461.5 1V-1C450.195 -1 439.599 2.05135 430.495 7.37604L431.505 9.10244ZM461.5 1C489.449 1 512.899 20.2708 519.283 46.2512L521.225 45.7739C514.626 18.9204 490.391 -1 461.5 -1V1ZM520.275 47.0124C520.682 47.0041 521.091 47 521.5 47V45C521.077 45 520.655 45.0043 520.234 45.0128L520.275 47.0124ZM521.5 47C554.361 47 581 73.6391 581 106.5H583C583 72.5345 555.466 45 521.5 45V47ZM581 106.5C581 139.361 554.361 166 521.5 166V168C555.466 168 583 140.466 583 106.5H581ZM521.5 166C521.007 166 520.515 165.994 520.025 165.982L519.977 167.982C520.483 167.994 520.991 168 521.5 168V166ZM519.034 166.727C512.308 192.211 489.097 211 461.5 211V213C490.027 213 514.015 193.578 520.968 167.237L519.034 166.727ZM461.5 211C446.418 211 432.649 205.39 422.161 196.141L420.839 197.641C431.677 207.2 445.912 213 461.5 213V211ZM420.839 196.141C410.351 205.39 396.582 211 381.5 211V213C397.088 213 411.323 207.2 422.161 197.641L420.839 196.141ZM381.5 211C348.639 211 322 184.361 322 151.5H320C320 185.466 347.534 213 381.5 213V211ZM322 151.5C322 150.394 322.03 149.294 322.09 148.203L320.093 148.094C320.031 149.222 320 150.357 320 151.5H322Z" fill="black" mask="url(#path-5-inside-3_15_3)"/>
<mask id="path-7-inside-4_15_3" fill="white">
<path fill-rule="evenodd" clip-rule="evenodd" d="M42.0913 587.148C17.6795 579.36 0 556.494 0 529.5C0 496.087 27.0868 469 60.5 469C63.352 469 66.1579 469.197 68.9048 469.579C79.3179 451.314 98.9709 439 121.5 439C132.623 439 143.045 442.002 152 447.239C160.955 442.002 171.377 439 182.5 439C210.92 439 234.763 458.596 241.254 485.013C241.669 485.004 242.084 485 242.5 485C275.913 485 303 512.087 303 545.5C303 578.913 275.913 606 242.5 606C241.999 606 241.499 605.994 241.001 605.982C234.162 631.895 210.562 651 182.5 651C167.165 651 153.163 645.295 142.5 635.891C131.837 645.295 117.835 651 102.5 651C69.0868 651 42 623.913 42 590.5C42 589.375 42.0307 588.258 42.0913 587.148Z"/>
</mask>
<path fill-rule="evenodd" clip-rule="evenodd" d="M42.0913 587.148C17.6795 579.36 0 556.494 0 529.5C0 496.087 27.0868 469 60.5 469C63.352 469 66.1579 469.197 68.9048 469.579C79.3179 451.314 98.9709 439 121.5 439C132.623 439 143.045 442.002 152 447.239C160.955 442.002 171.377 439 182.5 439C210.92 439 234.763 458.596 241.254 485.013C241.669 485.004 242.084 485 242.5 485C275.913 485 303 512.087 303 545.5C303 578.913 275.913 606 242.5 606C241.999 606 241.499 605.994 241.001 605.982C234.162 631.895 210.562 651 182.5 651C167.165 651 153.163 645.295 142.5 635.891C131.837 645.295 117.835 651 102.5 651C69.0868 651 42 623.913 42 590.5C42 589.375 42.0307 588.258 42.0913 587.148Z" fill="white"/>
<path d="M42.0913 587.148L43.0898 587.203L43.1319 586.431L42.3952 586.196L42.0913 587.148ZM68.9048 469.579L68.7672 470.57L69.4381 470.663L69.7736 470.074L68.9048 469.579ZM152 447.239L151.495 448.102L152 448.398L152.505 448.102L152 447.239ZM241.254 485.013L240.283 485.251L240.474 486.029L241.275 486.012L241.254 485.013ZM241.001 605.982L241.025 604.982L240.236 604.963L240.034 605.727L241.001 605.982ZM142.5 635.891L143.161 635.141L142.5 634.558L141.839 635.141L142.5 635.891ZM42.3952 586.196C18.386 578.535 1 556.047 1 529.5H-1C-1 556.942 16.973 580.184 41.7873 588.101L42.3952 586.196ZM1 529.5C1 496.639 27.6391 470 60.5 470V468C26.5345 468 -1 495.534 -1 529.5H1ZM60.5 470C63.3058 470 66.0657 470.194 68.7672 470.57L69.0425 468.589C66.2501 468.201 63.3982 468 60.5 468V470ZM69.7736 470.074C80.016 452.109 99.3445 440 121.5 440V438C98.5972 438 78.6198 450.52 68.0361 469.084L69.7736 470.074ZM121.5 440C132.441 440 142.689 442.952 151.495 448.102L152.505 446.376C143.401 441.051 132.805 438 121.5 438V440ZM152.505 448.102C161.311 442.952 171.559 440 182.5 440V438C171.195 438 160.599 441.051 151.495 446.376L152.505 448.102ZM182.5 440C210.449 440 233.899 459.271 240.283 485.251L242.225 484.774C235.626 457.92 211.391 438 182.5 438V440ZM241.275 486.012C241.682 486.004 242.091 486 242.5 486V484C242.077 484 241.655 484.004 241.234 484.013L241.275 486.012ZM242.5 486C275.361 486 302 512.639 302 545.5H304C304 511.534 276.466 484 242.5 484V486ZM302 545.5C302 578.361 275.361 605 242.5 605V607C276.466 607 304 579.466 304 545.5H302ZM242.5 605C242.007 605 241.515 604.994 241.025 604.982L240.977 606.982C241.483 606.994 241.991 607 242.5 607V605ZM240.034 605.727C233.308 631.211 210.097 650 182.5 650V652C211.027 652 235.015 632.578 241.968 606.237L240.034 605.727ZM182.5 650C167.418 650 153.649 644.39 143.161 635.141L141.839 636.641C152.677 646.2 166.912 652 182.5 652V650ZM141.839 635.141C131.351 644.39 117.582 650 102.5 650V652C118.088 652 132.323 646.2 143.161 636.641L141.839 635.141ZM102.5 650C69.6391 650 43 623.361 43 590.5H41C41 624.466 68.5345 652 102.5 652V650ZM43 590.5C43 589.394 43.0302 588.294 43.0898 587.203L41.0928 587.094C41.0312 588.222 41 589.357 41 590.5H43Z" fill="black" mask="url(#path-7-inside-4_15_3)"/>
</svg>
